# Blender 4.5.0
# www.blender.org
mtllib rock1.mtl
o Cube
v -0.814830 -0.126848 0.973120
v -0.953233 0.237299 1.144681
v -0.591395 1.291625 0.746225
v -0.863302 -0.220107 -0.429933
v -0.365618 -0.525938 -0.434301
v -0.613378 -0.380508 -0.731363
v -0.138037 -0.468909 -0.877740
v -1.113399 0.237433 -0.428942
v -0.857062 1.122941 -0.370966
v -0.785535 1.419324 -0.051980
v -0.831616 0.236588 -0.950375
v -0.370909 1.448233 -0.181565
v 0.362103 -0.203434 0.943770
v 0.626036 -0.383760 0.735453
v 0.724589 -0.101563 0.882521
v 0.808670 -0.227544 0.459935
v 0.196965 1.397605 0.933215
v 0.334895 1.308562 0.382020
v 0.840893 0.246812 1.033351
v 1.195907 0.236773 0.442470
v 0.502171 1.245368 0.142065
v 0.309921 -0.421799 -0.361789
v 0.122149 -0.439589 -0.816795
v 0.386120 -0.236775 -1.046266
v 0.788654 -0.081581 -0.913710
v 0.368443 0.236193 -1.164135
v 0.487587 1.236126 0.130825
v 0.774563 0.237613 -0.884338
v 0.612454 0.880497 -0.685752
vn 0.8684 0.4801 -0.1243
vn -0.0562 -0.9743 0.2182
vn -0.3015 -0.4341 -0.8489
vn -0.9463 0.2919 0.1388
vn -0.8795 0.0250 -0.4753
vn 0.3383 0.8806 -0.3318
vn -0.0535 0.5789 -0.8136
vn 0.7826 0.5509 0.2900
vn 0.4368 -0.8918 -0.1180
vn 0.0361 0.9984 0.0443
vn -0.0064 0.0379 0.9993
vn -0.7666 -0.6378 0.0744
vn 0.7149 -0.5308 0.4551
vn 0.4651 -0.0798 -0.8817
vn 0.7660 -0.6237 -0.1555
s 0
usemtl Material
f 28//1 29//1 27//1 21//1 18//1 20//1
f 5//2 22//2 14//2 13//2 1//2
f 7//3 5//3 6//3 4//3 11//3 26//3 24//3 23//3
f 10//4 9//4 8//4 2//4 3//4
f 9//5 11//5 4//5 8//5
f 12//6 27//6 29//6
f 28//7 26//7 11//7 9//7 10//7 12//7 29//7
f 20//8 18//8 17//8 19//8
f 23//9 24//9 16//9 14//9 22//9 5//9 7//9
f 12//10 10//10 3//10 17//10 18//10 21//10 27//10
f 2//11 1//11 13//11 15//11 19//11 17//11 3//11
f 8//12 4//12 6//12 5//12 1//12 2//12
f 16//13 20//13 19//13 15//13 13//13 14//13
f 26//14 28//14 25//14 24//14
f 25//15 28//15 20//15 16//15 24//15
